<svg width="72" height="73" viewBox="0 0 72 73" fill="none" xmlns="http://www.w3.org/2000/svg">
<path d="M36 72.5C55.8823 72.5 72 56.3822 72 36.5C72 16.6177 55.8823 0.5 36 0.5C16.1178 0.5 0 16.6177 0 36.5C0 56.3822 16.1178 72.5 36 72.5Z" fill="url(#paint0_linear_1433_2742)"/>
<path d="M36 72.5C55.8823 72.5 72 56.3822 72 36.5C72 16.6177 55.8823 0.5 36 0.5C16.1178 0.5 0 16.6177 0 36.5C0 56.3822 16.1178 72.5 36 72.5Z" fill="url(#paint1_linear_1433_2742)" fill-opacity="0.6"/>
<path d="M36 72.5C55.8823 72.5 72 56.3822 72 36.5C72 16.6177 55.8823 0.5 36 0.5C16.1178 0.5 0 16.6177 0 36.5C0 56.3822 16.1178 72.5 36 72.5Z" fill="url(#paint2_linear_1433_2742)"/>
<path d="M36 72.5C55.8823 72.5 72 56.3822 72 36.5C72 16.6177 55.8823 0.5 36 0.5C16.1178 0.5 0 16.6177 0 36.5C0 56.3822 16.1178 72.5 36 72.5Z" fill="url(#paint3_linear_1433_2742)" fill-opacity="0.6"/>
<path d="M35.9366 49.4648H32.1338V53.4928C32.1338 53.4928 31.8803 54.8774 30.1056 55.5068C28.331 56.0103 23.5141 57.6467 23.5141 57.6467C23.5141 57.6467 19.4578 58.4019 19.4578 61.297V68.4719C21.993 69.8565 24.9085 70.7376 24.9085 70.7376V68.2201C24.9085 68.2201 25.0352 68.2201 25.162 68.346C25.7958 68.8495 26.1761 69.7306 26.5564 71.2411C28.331 71.7446 31.5 72.4999 36.0634 72.4999V49.7166L35.9366 49.4648Z" fill="#64D8BF"/>
<path d="M35.9366 49.4648H32.1338V53.4928C32.1338 53.4928 31.8803 54.8774 30.1056 55.5068C28.331 56.0103 23.5141 57.6467 23.5141 57.6467C23.5141 57.6467 19.4578 58.4019 19.4578 61.297V68.4719C21.993 69.8565 24.9085 70.7376 24.9085 70.7376V68.2201C24.9085 68.2201 25.0352 68.2201 25.162 68.346C25.7958 68.8495 26.1761 69.7306 26.5564 71.2411C28.331 71.7446 31.5 72.4999 36.0634 72.4999V49.7166L35.9366 49.4648Z" fill="black" fill-opacity="0.1"/>
<path d="M48.2188 57.4062C48.2188 57.4062 45.2174 56.6606 43.0625 56.0312C40.9076 55.4019 42.0845 55.7568 41.831 55.7568C40.0563 55.2533 39.8028 53.7428 39.8028 53.7428V49.7148H36V72.4981C39.169 72.4981 41.9577 72.1205 45.507 71.2394C45.8873 69.7289 46.2676 68.8478 46.9014 68.3443C46.9014 68.3443 47.0282 68.3443 47.1549 68.2184V70.7359C47.1549 70.7359 50.3239 69.7289 52.6056 68.4701V61.2953C52.6056 58.4002 49 57.625 49 57.625L48.2188 57.4062Z" fill="#64D8BF"/>
<path d="M30.125 55.375C29.6562 55.5938 28.8248 55.9201 27.9375 56.1719C29.9657 57.053 32.1972 58.1454 36 58.1454V49.5859H32.0704V53.6139C31.8906 54.3438 31.4885 54.7387 30.125 55.375Z" fill="#F1B786"/>
<path d="M39.8028 53.6139V49.5859H36V58.1454C39.4225 58.1454 42.9718 57.1384 43.8592 56.2573C42.9718 56.0055 42.2113 55.7538 41.7042 55.6279C40.7351 55.3873 39.8028 54.2188 39.8028 53.6139Z" fill="#FED5B1"/>
<path fill-rule="evenodd" clip-rule="evenodd" d="M39.8028 49.7118H32.0781V52.481C33.5993 53.3622 35.3662 53.7398 35.3662 53.7398C35.3662 53.7398 37.4822 54.2361 39.8906 53.9844L39.8028 53.6139V49.5859V49.7118Z" fill="#E39F6E"/>
<path d="M51.7183 23.7833C51.7183 34.2309 45.1268 42.7904 36 42.7904C26.8732 42.7904 19.5211 38.3848 19.5211 26.5526C19.5211 14.7204 26.8732 8.30078 36 8.30078C45.1268 8.30078 51.7183 17.2379 51.7183 23.7833Z" fill="#3E2F3C"/>
<path d="M52.2253 27.8104C52.2253 14.4678 45 8.42578 35.8732 8.42578V42.9154C45.1268 42.9154 52.2253 41.9084 52.2253 27.8104Z" fill="#5C475A"/>
<path d="M26.8732 37.7532C26.8732 39.7672 25.2253 41.4035 23.1972 41.4035C21.169 41.4035 19.5211 39.7672 19.5211 37.7532V27.0539C19.5211 25.0399 21.169 25.5434 23.1972 25.5434C25.2253 25.5434 26.8732 24.914 26.8732 27.0539V37.7532Z" fill="#3E2F3C"/>
<path d="M44.7465 35.4901C44.7465 37.5041 46.3943 40.0216 48.4225 40.0216C50.4507 40.0216 52.0986 37.5041 52.0986 35.4901V29.3222C52.0986 27.3082 50.4507 25.6719 48.4225 25.6719C46.3943 25.6719 44.7465 27.3082 44.7465 29.3222V35.4901Z" fill="#5C475A"/>
<path d="M35.8732 17.8672V50.9722C39.9296 50.9722 48.8028 48.4547 48.8028 43.9232C48.8028 39.3917 46.6479 18.6224 46.6479 18.6224L35.8732 17.8672Z" fill="#FED5B1"/>
<path d="M35.8732 17.8672V50.9722C33.338 50.9722 22.9437 48.4547 22.9437 43.9232C22.9437 39.3917 25.0986 18.6224 25.0986 18.6224L35.8732 17.8672Z" fill="#F1B786"/>
<path d="M24.2113 18.3704V20.1327C24.0845 20.1327 29.9155 25.5453 41.9577 27.9369C54 30.3285 48.2958 27.9369 48.2958 27.9369L47.5352 18.3704C47.5352 18.3704 35.7465 12.9578 24.338 18.3704H24.2113Z" fill="#3E2F3C"/>
<path d="M40.5634 32.4706C40.5634 33.2258 41.1972 33.8552 41.9577 33.8552C42.7183 33.8552 43.3521 33.2258 43.3521 32.4706C43.3521 31.7153 42.7183 31.0859 41.9577 31.0859C41.1972 31.0859 40.5634 31.7153 40.5634 32.4706Z" fill="#5C475A"/>
<path d="M31.1831 32.4706C31.1831 33.2258 30.5493 33.8552 29.7887 33.8552C29.0281 33.8552 28.3943 33.2258 28.3943 32.4706C28.3943 31.7153 29.0281 31.0859 29.7887 31.0859C30.5493 31.0859 31.1831 31.7153 31.1831 32.4706Z" fill="#5C475A"/>
<path d="M36 45.9362C34.7324 45.9362 33.5915 45.6844 32.0704 45.1809C31.6901 45.1809 31.5634 44.6774 31.6901 44.2998C31.6901 43.9222 32.1972 43.7963 32.5774 43.9222C35.2394 44.8033 36.8873 44.8033 39.676 43.9222C40.0563 43.9222 40.4366 43.9222 40.5634 44.2998C40.5634 44.6774 40.5634 45.0551 40.1831 45.1809C38.6619 45.6844 37.3943 45.9362 36.1267 45.9362H36Z" fill="#C68E65"/>
<defs>
<linearGradient id="paint0_linear_1433_2742" x1="32.0704" y1="72.1197" x2="38.7887" y2="11.6549" gradientUnits="userSpaceOnUse">
<stop offset="0.2" stop-color="#3C57A6"/>
<stop offset="0.9" stop-color="#7BC5E7"/>
</linearGradient>
<linearGradient id="paint1_linear_1433_2742" x1="47.25" y1="33.875" x2="62.5" y2="6.375" gradientUnits="userSpaceOnUse">
<stop stop-color="white" stop-opacity="0"/>
<stop offset="1" stop-color="white"/>
</linearGradient>
<linearGradient id="paint2_linear_1433_2742" x1="32.0704" y1="72.1197" x2="38.7887" y2="11.6549" gradientUnits="userSpaceOnUse">
<stop offset="0.2" stop-color="#3C57A6"/>
<stop offset="0.9" stop-color="#7BC5E7"/>
</linearGradient>
<linearGradient id="paint3_linear_1433_2742" x1="47.25" y1="33.875" x2="62.5" y2="6.375" gradientUnits="userSpaceOnUse">
<stop stop-color="#64D8BF" stop-opacity="0"/>
<stop offset="1" stop-color="#64D8BF"/>
</linearGradient>
</defs>
</svg>
