<svg width="73" height="73" viewBox="0 0 73 73" fill="none" xmlns="http://www.w3.org/2000/svg">
<path d="M35.9383 71.5108C55.309 71.5108 71.012 55.8077 71.012 36.437C71.012 17.0663 55.309 1.36328 35.9383 1.36328C16.5676 1.36328 0.864502 17.0663 0.864502 36.437C0.864502 55.8077 16.5676 71.5108 35.9383 71.5108Z" fill="url(#paint0_linear_1433_3739)"/>
<path d="M35.9383 71.5108C55.309 71.5108 71.012 55.8077 71.012 36.437C71.012 17.0663 55.309 1.36328 35.9383 1.36328C16.5676 1.36328 0.864502 17.0663 0.864502 36.437C0.864502 55.8077 16.5676 71.5108 35.9383 71.5108Z" fill="url(#paint1_radial_1433_3739)"/>
<path d="M35.6912 35.2031V40.6371C35.6912 42.4896 39.2727 42.6131 39.2727 40.6371V35.2031H35.6912ZM37.5437 40.5136C37.1732 40.5136 36.9262 40.2666 36.9262 39.7726C36.9262 39.2786 37.1732 39.0316 37.5437 39.0316C37.9142 39.0316 38.1612 39.2786 38.1612 39.7726C38.1612 40.2666 37.9142 40.5136 37.5437 40.5136ZM37.5437 38.0436C37.1732 38.0436 36.9262 37.7966 36.9262 37.3026C36.9262 36.8086 37.1732 36.5616 37.5437 36.5616C37.9142 36.5616 38.1612 36.8086 38.1612 37.3026C38.1612 37.7966 37.9142 38.0436 37.5437 38.0436Z" fill="black"/>
<path d="M37.2968 68.0556C37.2968 68.0556 36.9263 68.3026 36.6793 68.0556C36.4323 67.8086 36.0618 66.2031 36.0618 66.2031C36.0618 66.2031 37.4203 66.2031 37.9143 66.2031C37.9143 67.5616 37.2968 68.0556 37.2968 68.0556Z" fill="url(#paint2_linear_1433_3739)"/>
<path d="M38.0377 66.3255C37.9142 66.5724 36.3087 66.5724 36.0617 66.3255C35.8147 66.202 36.1852 64.72 35.5677 63.8555C35.8147 63.8555 38.1612 63.8555 38.4082 63.8555C37.7907 64.3495 38.1612 66.0785 38.0377 66.3255Z" fill="#EAEAE9"/>
<path d="M37.7907 66.0769C37.6672 66.0769 37.5438 66.0769 37.2968 66.0769C37.2968 65.4595 37.2968 63.9775 37.4203 63.7305C38.0377 63.7305 38.0377 63.7305 38.1612 63.7305C37.6672 64.2245 37.9142 65.7065 37.9142 65.9535L37.7907 66.0769Z" fill="#A4A4A4"/>
<path d="M35.6913 35.2031V40.6371C35.6913 42.4896 39.2728 42.6131 39.2728 40.6371V35.2031H35.6913ZM37.5438 40.5136C37.1733 40.5136 36.9263 40.2666 36.9263 39.7726C36.9263 39.2786 37.1733 39.0316 37.5438 39.0316C37.9143 39.0316 38.1613 39.2786 38.1613 39.7726C38.1613 40.2666 37.9143 40.5136 37.5438 40.5136ZM37.5438 38.0436C37.1733 38.0436 36.9263 37.7966 36.9263 37.3026C36.9263 36.8086 37.1733 36.5616 37.5438 36.5616C37.9143 36.5616 38.1613 36.8086 38.1613 37.3026C38.1613 37.7966 37.9143 38.0436 37.5438 38.0436Z" fill="black"/>
<path d="M35.3208 41.6242L38.7787 41.1302L39.1492 40.6362V35.4492L38.6552 36.0667L35.1973 36.4372L35.3208 41.6242Z" fill="#213065" stroke="#213065" stroke-width="0.2" stroke-miterlimit="10"/>
<path d="M38.5317 63.732C38.5317 64.226 35.8147 64.226 35.3207 63.732V62.25H38.5317V63.732Z" fill="#DDDDDC"/>
<path d="M38.5317 63.732C38.5317 64.226 35.8147 64.226 35.3207 63.732V62.25H38.5317V63.732Z" fill="#EAEAE9"/>
<path d="M38.2847 63.6085C38.1612 63.6085 37.7907 63.8555 37.0497 63.8555V62.25H38.2847V63.6085Z" fill="#A4A4A4"/>
<path d="M38.6553 62.2497C38.6553 62.7437 35.1973 62.7437 35.1973 62.2497C35.1973 61.7557 34.8268 41.0078 34.8268 41.0078H38.4083C38.4083 41.0078 38.6553 61.8792 38.6553 62.3732V62.2497Z" fill="#A4A4A4" stroke="#EAEAE9" stroke-width="0.2" stroke-miterlimit="10"/>
<path d="M25.1562 14.4062L27.7812 16.3438C31.0084 18.9255 34.3964 21.2701 37.5388 23.9636C37.5388 23.9636 38.4033 24.2106 39.7618 24.2106C41.1203 24.2106 43.4668 23.8401 45.3193 22.3581C46.4308 21.4936 47.2953 20.3821 47.7893 18.9002C48.6538 16.9242 48.4068 14.8247 47.2953 12.6017C46.5543 11.1197 45.4428 9.76122 44.8253 9.02023C44.2078 8.40273 43.8373 8.03224 43.8373 8.03224C43.8373 8.03224 39.5148 4.45076 35.5629 1.36328C25.8389 1.48438 20.2328 5.54264 16.6514 7.76562L25.1562 14.4062Z" fill="#EAEAE9"/>
<path d="M24.4528 6.67578C24.4528 6.67578 42.7307 20.2607 45.3242 22.1132C42.1132 24.7067 37.7907 23.5952 37.7907 23.5952C37.7907 23.5952 36.8027 22.8542 35.5677 21.7427C34.3327 20.6312 33.2213 19.7667 31.9863 18.7787C30.7513 17.7907 28.8988 16.3087 28.1578 15.6912L22.3533 11.4922L24.5763 6.67578H24.4528Z" fill="#A4A4A4"/>
<path d="M32.9742 1.98069C34.3327 2.96868 35.8147 4.08018 37.2967 5.19167C41.3722 8.40265 42.1132 14.4541 42.7307 18.4061C43.1012 21.1231 42.765 23.4062 44 23.4062C47.1653 23.209 48.9688 18.8465 48.9688 16.5C48.9688 13.124 47.3001 10.6561 44.2127 7.78515C44.2127 7.78515 40.1372 4.32718 36.3087 1.3632C34.5234 1.30847 32.2031 1.56241 32.2031 1.56241L32.9742 1.98069Z" fill="#EAEAE9"/>
<path d="M35.3207 1.36328C39.3962 4.57426 43.8422 8.27923 43.8422 8.27923C46.1648 10.1119 48.2881 13.2241 48.2881 16.3067C48.2881 18.1592 47.339 21.8155 44.375 22.0625C42.5225 22.0625 44.4597 9.88472 37.6672 4.69776C34.8659 2.55858 34.8023 2.56914 33.3203 1.45765C34.0273 1.41797 34.7305 1.36479 35.1972 1.36328H35.3207Z" fill="#A4A4A4"/>
<path d="M36.7656 62.7656C36.1816 62.9111 35.2954 62.6346 35.1719 62.1406C35.1719 61.7701 34.8125 40.8828 34.8125 40.8828H36.6792C36.6792 40.8828 36.6792 62.0012 36.6792 62.3717L36.7656 62.7656Z" fill="#EAEAE9"/>
<path d="M31.8628 1.61328C32.1098 2.60127 32.2333 3.46577 32.2333 4.33026C32.2333 5.19476 32.2333 5.19476 32.2333 5.44175C32.2333 6.18275 31.9863 6.55325 31.9863 6.55325C31.9863 6.55325 31.7393 7.91174 30.9983 8.65273C30.2573 9.39373 30.5043 9.14673 30.2573 9.39373C29.2693 10.3817 27.7873 11.7402 27.1698 12.1107C25.6879 13.2222 23.0944 14.9512 20.1304 14.2102C17.1664 13.4692 17.4134 13.2222 17.2899 13.0987C16.1784 12.2342 14.5729 11.1227 13.0909 9.88772C20.8714 3.09527 29.5163 1.86028 31.8628 1.61328Z" fill="#EAEAE9"/>
<path d="M12.7891 10.0703C13.9006 10.9348 15.1904 12.1122 17.0429 13.4707C17.9988 14.1717 20.1875 15 21.3438 15C23.5667 15 26.332 13.8615 27.9375 12.75C30.108 11.4477 32.875 8.12178 32.875 5.53125C32.875 5.16075 32.875 4.7455 32.875 4.375C32.875 3.38701 32.4803 2.60278 32.1098 1.73828C24.1562 2.03125 16.3906 6.85156 12.7891 10.0703Z" fill="#EAEAE9"/>
<path d="M34.9503 41.8733L38.7787 41.2558L38.6552 35.9453L35.1973 36.4393L34.9503 41.8733Z" fill="#1E4494"/>
<path d="M33.8387 36.4375V41.8715C33.8387 43.7239 37.4202 43.8474 37.4202 41.8715V36.4375H33.8387ZM35.6912 41.6245C35.3207 41.6245 35.0737 41.3775 35.0737 40.8835C35.0737 40.3895 35.3207 40.1425 35.6912 40.1425C36.0617 40.1425 36.3087 40.3895 36.3087 40.8835C36.3087 41.3775 36.0617 41.6245 35.6912 41.6245ZM35.6912 39.1545C35.3207 39.1545 35.0737 38.9075 35.0737 38.4135C35.0737 37.9195 35.3207 37.6725 35.6912 37.6725C36.0617 37.6725 36.3087 37.9195 36.3087 38.4135C36.3087 38.9075 36.0617 39.1545 35.6912 39.1545Z" fill="black"/>
<path d="M36.0618 39.0304C35.1973 39.4009 34.9503 38.7834 34.9503 38.4129C34.9503 38.0424 34.9503 37.6719 35.8148 37.6719C35.4443 37.7954 35.4443 38.1659 35.4443 38.4129C35.4443 38.6599 35.4443 38.9069 36.0618 39.0304Z" fill="#3A3A3A"/>
<path d="M36.0618 41.503C35.1973 41.8735 34.9503 41.256 34.9503 40.8855C34.9503 40.515 34.9503 40.1445 35.8148 40.1445C35.4443 40.268 35.4443 40.6385 35.4443 40.8855C35.4443 41.1325 35.4443 41.3795 36.0618 41.503Z" fill="#3A3A3A"/>
<path d="M36.6793 37.922C34.3328 37.922 30.3808 37.5515 30.3808 36.0695C30.3808 34.5875 30.1338 34.958 29.7633 34.5875C29.2693 33.97 28.7753 33.229 28.7753 31.6235C28.7753 31.5 28.8988 31.5 28.8988 31.5H44.5832C44.5832 33.229 44.119 33.7419 43.625 34.3594C42.9777 34.9375 42.875 35.452 42.875 36.0695C42.875 36.687 42.2647 37.3155 40.9063 37.5625C39.7948 37.8095 38.4083 37.7985 36.8028 37.7985L36.6793 37.922Z" fill="#A4A4A4"/>
<path d="M44.3362 31.6244C44.3362 34.3414 42.7307 34.3414 42.7307 36.0704C42.513 37.0054 39.6432 37.5479 36.6793 37.5479C33.7153 37.5479 30.6278 37.1819 30.6278 36.0704C30.6278 34.3414 29.0223 34.4649 29.0223 31.6244C29.0223 31.6244 30.8748 31.6244 33.0978 31.6244C37.6673 31.6244 44.4597 31.6244 44.4597 31.6244M28.5283 31.3774V31.7479C28.5283 33.3534 29.1458 34.0944 29.6398 34.7119C30.0103 35.2059 30.2573 35.4529 30.2573 36.0704C30.2573 37.5524 33.7153 38.0464 36.6793 38.0464C39.6432 38.0464 43.1012 37.5524 43.1012 36.0704C43.1012 35.4082 43.3482 35.0824 43.7187 34.5884C44.2127 33.9709 44.7067 33.2299 44.7067 31.6244V31.2539H44.3362H32.9743C29.6398 31.2539 28.8988 31.2539 28.8988 31.2539H28.5283V31.3774Z" fill="#EAEAE9"/>
<path d="M30.5043 36.0686C30.5043 37.1801 33.7152 37.7976 36.8027 37.7976C36.5557 35.3276 37.4202 34.9571 36.5557 31.7461C32.7272 31.7461 28.8438 31.3906 28.7203 31.3906C28.7203 34.1076 30.3808 34.4631 30.3808 36.1921L30.5043 36.0686Z" fill="#EAEAE9"/>
<path d="M34.2092 32.8582C34.0781 32.6133 34.2092 31.9414 34.2092 31.4883L44.5831 30.5117V31.6232C44.5831 31.7467 44.5971 32.0412 41.0156 32.5352C40.1569 32.6425 36.1094 32.8582 34.2092 32.8582Z" fill="#A4A4A4"/>
<path d="M44.4597 30.5111V31.3756C44.4597 32.1166 40.25 32.6734 34.25 32.5171C29.6805 32.5171 28.6518 32.0796 28.6518 31.8696C28.6518 31.0051 28.8988 31.0051 28.8988 31.0051L44.4597 30.5111ZM44.8302 30.1406L28.8988 30.6346C28.8988 30.6346 28.7753 30.6346 28.6518 30.7581C28.5283 30.8816 28.4048 31.2521 28.4048 31.7461C28.4048 32.1166 28.4048 32.8576 34.3327 32.8576C40.2607 32.8576 44.8302 32.8576 44.8302 31.2521V30.1406Z" fill="#EAEAE9"/>
<path d="M28.2813 30.8814C28.2813 31.3754 30.0114 31.3296 32.2344 31.4531C34.4574 31.5766 35.8521 31.4531 37.8281 31.4531C41.4096 31.2061 44.7067 31.1284 44.7067 30.5109C44.7067 29.8934 44.7067 30.5109 44.7067 30.3874C44.7067 29.8934 44.7067 28.9054 44.7067 27.4235C44.7067 25.9415 44.7067 25.818 44.7067 24.9535C44.7067 24.089 44.7067 23.4715 44.7067 22.607C44.9537 22.36 45.2007 21.9895 45.3242 21.7425C45.5712 21.372 45.8182 20.878 45.9417 20.384C46.1887 19.5195 46.3122 18.408 46.3122 16.432C46.3122 14.4561 46.0652 15.0735 45.6947 14.2091C44.9537 12.7271 43.8422 10.9981 42.1132 10.0101C41.8662 9.88658 41.6192 9.76309 41.3722 9.63959C41.1252 9.51609 40.7547 9.39259 40.3842 9.26909C39.7667 9.02209 39.0257 8.89859 38.4082 8.77509C37.0497 8.52809 35.5677 8.52809 34.2092 8.77509C32.8507 9.02209 32.7272 9.14559 31.9863 9.39259C31.2453 9.63959 30.2573 10.2571 29.5163 10.8746C28.2813 11.9861 27.5403 13.4681 27.5403 15.3205C27.5403 17.173 27.5403 16.3085 27.5403 16.679C27.5403 18.7785 27.9108 20.878 28.0343 24.089C28.1578 27.3 28.1578 26.559 28.2813 27.9175C28.4048 29.2759 28.2813 30.0169 28.2813 31.1284V30.8814Z" fill="#EAEAE9"/>
<path d="M34.0858 31.6211C33.4683 31.6211 32.8508 31.6211 32.2333 31.6211C28.5283 31.4976 28.0343 31.0036 28.0343 30.5096C28.0343 29.5216 28.0343 28.9041 28.0343 28.0396V27.6691C28.0343 26.1871 27.9108 24.9521 27.7873 23.8406C27.7873 22.3587 27.5403 21.1237 27.5403 20.0122C27.5403 18.6537 27.2933 17.5422 27.2933 16.4307C27.2933 15.9367 27.2933 15.4427 27.2933 15.0722C27.2933 13.2197 27.2933 12.1288 29.3928 10.3792C30.1338 9.76174 30.9983 9.26774 31.9863 8.89725C32.7273 8.65025 33.4683 8.40325 34.2093 8.27975C34.9503 8.27975 35.5678 8.15625 36.3088 8.15625C37.0498 8.15625 37.7908 8.15625 38.5318 8.40325C39.5676 8.57589 40.8662 8.8483 41.75 9.4375C43.6912 10.4081 45.205 12.2006 46.0652 14.2077C46.4357 15.0722 46.8062 16.0602 46.8062 16.5542C46.8062 18.4067 46.6827 19.6417 46.3122 20.6297C46.1887 21.1237 45.9417 21.6177 45.5712 22.1117C45.4477 22.3587 45.2007 22.6057 45.0772 22.8526C45.0772 23.7171 45.0772 24.4581 45.0772 25.1991C45.0772 26.1871 45.0772 26.9281 45.0772 27.6691C45.0772 28.4101 45.0772 28.9041 45.0772 29.2746C45.0772 29.6451 45.0772 29.8921 45.0772 30.1391C45.0772 30.5096 45.1332 31.1451 38.0938 31.5156C36.8588 31.5156 36.0787 31.6211 34.8438 31.6211H34.0858Z" fill="#EAEAE9"/>
<path d="M36.1852 9.95312C36.9262 9.95312 37.07 9.82963 37.6875 9.95312C38.4285 9.95312 39.2419 9.70613 39.8594 9.95312C40.4747 10.1582 40.9136 10.0896 41.4844 10.375C43.2134 11.4865 43.6638 12.6728 44.2812 14.0312C44.7752 15.0192 44.5312 15.6623 44.5312 16.1562C44.5312 18.1322 46.0652 19.1495 45.8182 20.014C45.6947 20.508 45.4477 21.002 45.2007 21.3725C44.9537 21.6195 44.8302 21.99 44.5832 22.237C44.5832 23.1015 44.5832 23.8424 44.5832 24.5834C44.5832 25.5714 44.5832 26.3124 44.5832 27.0534C44.5832 28.4119 44.5832 29.0294 44.5832 29.5234C44.5832 29.5234 44.5832 29.5234 44.5832 29.6469C44.5832 30.1409 41.3722 30.6349 37.7907 30.8819C36.5557 30.8819 35.1973 30.8819 33.9623 30.8819C32.7273 30.8819 32.7273 30.8819 32.1098 30.8819C29.8868 30.8819 28.1578 30.5114 28.1578 30.0174C28.1578 28.7824 28.1578 28.1649 28.1578 27.1769C28.1578 25.6949 28.1578 24.4599 27.9108 23.3485C27.6638 20.261 27.4168 18.038 27.4168 15.9385C27.4168 15.4445 27.4168 14.9505 27.4168 14.58C27.4168 12.7275 28.1578 11.2455 29.3928 10.134C30.1338 9.51655 30.8748 9.02255 31.8628 8.65206C32.6038 8.40506 33.3448 8.15806 34.0858 8.03456C34.8268 8.03456 35.4443 7.91106 36.1852 7.91106M36.1852 7.66406C35.4443 7.66406 34.7033 7.66406 33.9623 7.78756C33.0978 7.91106 32.3568 8.15806 31.6158 8.40506C30.6278 8.77555 29.6398 9.39305 29.0223 10.0105C27.5403 11.2455 26.5312 12.9303 26.5312 14.9062C26.5312 19.2859 27.5403 23.6678 27.5403 28.0414C27.5403 28.9059 27.5403 29.5234 27.5403 30.5114C27.5403 31.2524 28.2813 31.8699 32.1098 31.9934C32.7273 31.9934 33.3448 31.7188 33.9623 31.7188C35.1973 31.7188 36.5557 31.7188 37.7907 31.7188C45.2007 31.3483 45.2007 30.7584 45.2007 30.1409C45.2007 29.7704 45.2007 29.3999 45.2007 29.1529C45.2007 28.7824 45.2007 28.2884 45.2007 27.5474C45.2007 26.8064 45.2007 25.9419 45.2007 25.0774C45.2007 24.4599 45.2007 23.719 45.2007 22.978C45.4477 22.731 45.5712 22.484 45.6947 22.237C46.0652 21.743 46.3122 21.249 46.4357 20.755C46.8062 19.767 47.5124 18.2449 47.25 16.5938C46.4357 11.4688 42.6586 8.72238 38.5317 8.03456C37.7907 7.91106 37.0497 7.78756 36.3087 7.78756L36.1852 7.66406Z" fill="#EAEAE9"/>
<path d="M35.5678 31.0068C36.3088 31.0068 37.0498 31.0068 37.7908 31.0068C41.3722 30.7598 44.5832 30.3893 44.5832 29.7718C44.5832 29.1543 44.5832 29.7718 44.5832 29.6483C44.5832 29.1543 44.5832 28.9073 44.5832 27.4254C44.5832 25.9434 44.5832 25.8199 44.5832 24.9554C44.5832 24.0909 44.5832 23.4734 44.5832 22.6089C44.8302 22.3619 45.0772 21.9914 45.2007 21.7444C46.1867 20.2654 46.4062 18.1842 46.4062 16.4688C46.4062 14.0046 44.0553 11.1923 41.9897 10.012C41.7427 9.88847 41.4957 9.76497 41.2487 9.64147C41.0017 9.51797 40.6312 9.39447 40.2607 9.27098C39.6432 9.02398 38.9023 8.90048 38.2848 8.77698C37.1354 8.54711 35.9802 8.65348 34.8268 8.65348C34.8268 9.88847 35.4443 27.4254 35.5678 31.2538V31.0068Z" fill="#A4A4A4"/>
<path d="M31.8628 1.61328C32.1097 2.60127 32.2332 3.46577 32.2332 4.33026C32.2332 6.35434 31.7532 7.89779 30.2573 9.39373C29.2693 10.3817 27.7873 11.7402 27.1698 12.1107C25.6878 13.2222 23.0943 14.9512 20.1303 14.2102C18.2817 13.748 17.5205 13.2067 17.2812 13.0312C15.4288 11.6728 14.2024 10.7522 13.0909 9.88772C20.1797 15.3594 28.0343 9.64073 26.7993 2.60127C27.4168 2.35428 29.3928 1.86028 31.8628 1.61328Z" fill="#A4A4A4"/>
<defs>
<linearGradient id="paint0_linear_1433_3739" x1="52.75" y1="16.25" x2="32" y2="81.25" gradientUnits="userSpaceOnUse">
<stop offset="0.24" stop-color="#3C56A5"/>
<stop offset="0.9" stop-color="#7BC4E6"/>
</linearGradient>
<radialGradient id="paint1_radial_1433_3739" cx="0" cy="0" r="1" gradientUnits="userSpaceOnUse" gradientTransform="translate(-12 67.5) rotate(-46.5587) scale(51.9916)">
<stop offset="0.225" stop-color="#64D8BF"/>
<stop offset="1" stop-color="#64D8BF" stop-opacity="0"/>
</radialGradient>
<linearGradient id="paint2_linear_1433_3739" x1="36.0618" y1="67.1911" x2="37.9143" y2="67.1911" gradientUnits="userSpaceOnUse">
<stop offset="0.1" stop-color="#53A1D8"/>
<stop offset="0.8" stop-color="#242062"/>
</linearGradient>
</defs>
</svg>
